<?xml version="1.0" standalone="no"?>
<!DOCTYPE svg PUBLIC "-//W3C//DTD SVG 20010904//EN"
 "http://www.w3.org/TR/2001/REC-SVG-20010904/DTD/svg10.dtd">
<svg version="1.0" xmlns="http://www.w3.org/2000/svg"
 width="808.000000pt" height="808.000000pt" viewBox="0 0 808.000000 808.000000"
 preserveAspectRatio="xMidYMid meet">
<metadata>
Created by potrace 1.14, written by Peter Selinger 2001-2017
</metadata>
<g transform="translate(0.000000,808.000000) scale(0.100000,-0.100000)"
fill="#000000" stroke="none">
<path d="M1285 7373 l0 -704 96 -92 c53 -51 161 -153 239 -227 78 -74 172
-163 209 -198 36 -35 118 -112 181 -172 63 -60 142 -135 176 -167 34 -32 123
-116 199 -188 75 -71 163 -155 194 -185 32 -30 124 -118 206 -195 81 -77 183
-174 226 -215 43 -41 133 -127 200 -190 67 -63 146 -137 174 -165 28 -27 118
-113 200 -190 167 -159 215 -204 344 -327 107 -103 107 -103 125 -86 7 7 82
78 166 158 84 80 177 168 206 195 28 28 116 111 195 185 78 74 163 155 189
180 26 25 113 108 194 185 82 77 177 167 211 200 35 33 128 121 206 195 79 74
159 151 179 170 41 40 320 304 385 365 36 34 151 143 431 410 29 28 122 117
208 199 l155 149 -5 611 c-3 336 -6 648 -6 694 -1 45 -3 82 -5 82 -5 0 -70
-60 -154 -140 -72 -70 -329 -313 -580 -550 -72 -69 -151 -143 -174 -165 -23
-22 -111 -105 -195 -185 -84 -80 -174 -165 -200 -190 -52 -50 -282 -267 -345
-325 -105 -99 -403 -377 -494 -463 -19 -18 -66 -61 -105 -96 -39 -35 -87 -79
-107 -97 -44 -42 -176 -161 -205 -186 -12 -10 -49 -43 -84 -73 -35 -30 -71
-60 -80 -67 -20 -14 -15 -17 -145 102 -133 122 -264 244 -416 387 -26 23 -106
99 -180 168 -73 69 -154 145 -179 169 -25 24 -89 84 -143 135 -54 50 -127 118
-161 151 -35 33 -134 128 -221 210 -87 83 -177 168 -200 190 -23 22 -104 99
-180 170 -76 72 -165 157 -200 190 -34 33 -131 125 -215 205 -84 80 -174 165
-200 190 -134 129 -231 221 -271 257 l-44 41 0 -705z m5121 -376 l0 -162 -89
-85 c-50 -47 -107 -101 -127 -120 -20 -19 -101 -96 -180 -170 -78 -74 -161
-153 -184 -175 -57 -54 -337 -319 -397 -375 -140 -133 -337 -320 -374 -355
-41 -38 -280 -266 -405 -385 -32 -30 -129 -122 -216 -205 -210 -200 -218 -208
-313 -299 -92 -90 -74 -89 -166 -1 -23 22 -109 103 -190 180 -82 77 -170 160
-196 185 -26 25 -109 104 -184 175 -76 72 -157 148 -180 170 -23 22 -106 101
-185 175 -78 74 -180 171 -226 215 -45 44 -127 121 -180 170 -53 50 -125 117
-159 150 -34 33 -120 114 -190 180 -70 66 -156 147 -190 180 -34 33 -120 114
-190 180 -71 66 -137 128 -146 137 -40 38 -50 76 -49 176 1 129 5 200 11 206
4 5 51 -37 245 -223 85 -81 261 -248 439 -416 84 -79 349 -331 395 -375 26
-25 111 -106 190 -180 79 -74 166 -157 194 -183 28 -27 100 -95 159 -150 60
-56 130 -122 155 -146 286 -268 412 -384 524 -481 18 -16 38 -26 44 -22 6 4
53 45 104 92 51 47 107 98 124 113 17 16 81 75 141 132 61 56 128 119 150 140
89 82 302 283 356 335 61 59 288 273 354 334 62 58 301 284 371 351 34 33 113
107 174 165 62 58 136 128 165 155 72 68 288 272 355 334 30 28 56 48 59 45 3
-3 6 -78 7 -167z"/>
<path d="M235 6562 c-88 -3 -91 -3 -102 -30 -19 -47 -70 -185 -88 -241 l-18
-54 250 -246 c137 -135 354 -347 483 -471 128 -124 296 -286 374 -362 78 -75
170 -164 206 -199 77 -74 482 -467 757 -736 l197 -191 -96 -94 c-53 -51 -185
-178 -293 -283 -108 -104 -236 -228 -283 -274 -242 -233 -553 -533 -612 -591
-37 -36 -185 -180 -330 -320 -418 -406 -626 -613 -638 -636 -7 -12 -7 -26 -1
-35 5 -7 9 -22 9 -31 0 -9 5 -29 12 -45 6 -15 12 -30 13 -33 4 -10 17 -46 25
-65 4 -11 18 -45 30 -77 l22 -56 361 3 c463 5 548 11 597 42 26 16 117 97 240
213 143 134 308 290 345 325 23 22 113 108 200 190 87 83 177 168 200 190 22
22 114 110 204 195 89 85 202 193 250 240 49 47 184 177 301 290 469 452 837
816 850 840 11 20 -150 182 -908 918 -129 125 -285 277 -347 337 -62 61 -206
200 -320 310 -114 110 -246 238 -294 283 -47 46 -162 157 -255 245 -93 89
-190 182 -216 207 -67 65 -211 195 -242 220 -27 21 -36 21 -410 23 -211 1
-424 1 -473 -1z m806 -462 c48 -47 147 -143 220 -214 131 -125 535 -516 689
-666 43 -41 178 -172 300 -290 122 -118 268 -259 324 -313 182 -177 470 -454
534 -514 34 -33 62 -63 62 -68 0 -4 -40 -47 -89 -94 -151 -146 -517 -501 -625
-606 -117 -113 -531 -514 -640 -619 -85 -82 -553 -536 -641 -621 -34 -33 -94
-91 -134 -130 l-72 -70 -84 0 c-47 0 -85 2 -85 5 0 3 -32 5 -70 4 -39 0 -70 3
-70 7 0 4 43 50 96 101 53 51 147 143 210 203 62 61 188 182 279 270 92 88
221 213 287 278 67 64 122 117 122 117 1 0 49 46 107 102 546 530 680 660 863
840 l210 208 -34 36 c-98 100 -535 531 -851 836 -118 114 -280 271 -360 350
-81 79 -263 256 -404 393 -433 420 -538 527 -527 534 6 3 75 6 154 6 l143 0
86 -85z"/>
<path d="M7247 6554 c-1 -1 -66 -4 -145 -6 -135 -5 -144 -6 -170 -30 -15 -13
-49 -44 -76 -69 -82 -75 -316 -295 -466 -439 -32 -30 -128 -122 -215 -205 -86
-82 -192 -184 -234 -225 -78 -75 -462 -446 -615 -593 -457 -441 -943 -924
-959 -952 -9 -16 150 -178 608 -620 120 -115 250 -241 290 -280 40 -38 148
-143 241 -232 93 -88 199 -190 235 -225 37 -34 130 -124 209 -198 78 -74 168
-160 199 -190 32 -30 125 -118 206 -195 82 -77 163 -153 180 -170 62 -58 303
-282 395 -364 24 -23 47 -41 50 -42 3 0 14 -2 25 -5 73 -15 892 -29 912 -15 5
3 39 79 75 168 l66 162 -235 228 c-129 125 -266 257 -303 293 -37 36 -167 162
-290 280 -122 118 -259 250 -304 293 -482 463 -1126 1093 -1126 1100 0 18 543
559 1125 1122 130 127 277 268 325 315 48 47 187 182 310 300 398 386 490 477
490 487 0 9 -32 91 -65 168 -7 17 -22 53 -33 80 l-21 50 -278 2 c-153 2 -307
4 -341 5 -35 2 -64 2 -65 2z m135 -375 c10 0 20 -5 24 -10 6 -10 -160 -176
-594 -597 -123 -120 -270 -262 -326 -317 -57 -55 -213 -206 -346 -335 -134
-129 -392 -382 -574 -563 l-331 -327 166 -163 c165 -162 609 -593 769 -747 47
-45 186 -180 310 -300 124 -120 259 -251 300 -290 241 -232 640 -624 640 -630
0 -4 -70 -7 -155 -6 l-156 1 -152 146 c-84 81 -188 181 -232 224 -44 42 -160
154 -258 248 -98 95 -213 205 -255 246 -561 536 -1282 1252 -1282 1272 0 8 8
22 18 31 9 8 89 88 177 177 146 148 808 800 1017 1002 47 46 200 194 339 329
139 135 286 278 328 319 42 40 128 124 191 185 l115 112 125 -3 c69 -1 133 -3
142 -4z"/>
<path d="M4005 3964 c-49 -42 -273 -246 -359 -327 -28 -27 -94 -89 -146 -137
-52 -49 -118 -110 -146 -137 -28 -26 -107 -100 -174 -163 -68 -63 -153 -144
-191 -180 -37 -36 -118 -112 -180 -170 -61 -58 -137 -130 -169 -160 -31 -30
-121 -116 -200 -190 -78 -74 -168 -160 -200 -190 -32 -30 -118 -112 -191 -182
-74 -69 -162 -152 -195 -185 -34 -32 -124 -116 -199 -188 -76 -71 -168 -159
-205 -195 -37 -36 -89 -85 -116 -110 l-49 -45 0 -702 c0 -387 0 -703 1 -703 4
0 203 183 304 280 37 36 123 117 190 180 68 63 148 140 180 170 31 30 115 110
186 177 71 66 152 143 180 170 79 75 362 343 409 388 72 68 205 194 361 342
82 77 172 163 200 190 29 26 114 107 190 178 434 410 537 505 544 505 3 0 28
-21 55 -46 28 -25 81 -74 119 -107 38 -34 90 -82 116 -107 26 -25 98 -92 160
-150 62 -58 134 -125 160 -150 41 -39 162 -153 330 -310 25 -23 108 -102 185
-175 77 -73 156 -148 176 -166 50 -47 306 -289 392 -373 40 -37 130 -123 201
-190 71 -66 148 -139 171 -161 43 -42 151 -145 394 -375 79 -74 175 -166 214
-203 l72 -69 3 704 2 703 -88 85 c-49 47 -148 141 -221 210 -73 69 -161 152
-195 185 -35 33 -120 114 -191 180 -70 66 -148 140 -174 165 -26 25 -111 106
-190 180 -79 74 -174 164 -211 200 -37 36 -128 121 -201 190 -73 69 -153 145
-179 170 -26 25 -99 95 -164 155 -64 61 -150 142 -190 180 -40 39 -126 120
-191 180 -65 61 -134 126 -154 145 -20 19 -92 87 -160 150 -68 63 -147 136
-174 163 -28 26 -54 47 -57 47 -3 0 -18 -12 -35 -26z m85 -545 c25 -23 98 -91
163 -153 65 -61 136 -127 156 -146 32 -29 130 -121 342 -320 20 -19 104 -99
185 -176 82 -78 165 -156 184 -174 19 -18 102 -96 184 -174 82 -77 170 -161
196 -186 61 -58 338 -321 400 -380 151 -144 336 -319 408 -387 l84 -78 4 -88
c2 -49 6 -92 9 -98 4 -5 1 -9 -5 -9 -7 0 -8 -6 -2 -17 10 -21 5 -89 -8 -112
-6 -10 -10 -11 -10 -3 0 6 -5 12 -10 12 -6 0 -21 10 -34 23 -13 12 -72 67
-131 122 -114 107 -124 116 -321 301 -71 67 -145 136 -164 154 -19 18 -102 96
-184 174 -82 77 -187 177 -234 221 -47 44 -109 103 -138 130 -29 28 -110 105
-179 170 -70 66 -158 149 -195 185 -73 70 -129 122 -316 297 -126 118 -131
123 -271 250 -135 124 -157 143 -168 143 -5 0 -26 -14 -45 -31 -43 -38 -180
-163 -236 -215 -23 -22 -85 -79 -139 -129 -53 -49 -121 -112 -150 -140 -29
-27 -110 -104 -181 -170 -186 -174 -188 -176 -322 -304 -68 -64 -147 -138
-177 -166 -29 -27 -117 -111 -195 -185 -78 -74 -165 -157 -194 -183 -68 -65
-344 -328 -416 -397 -139 -134 -268 -256 -281 -267 -13 -10 -15 11 -14 163 l0
176 97 91 c53 51 156 148 229 217 73 69 149 141 169 160 20 19 101 96 179 170
79 74 169 160 201 190 32 30 120 114 196 186 77 73 162 154 190 180 28 27 125
119 214 204 189 179 187 177 355 335 71 66 150 140 176 165 61 58 254 238 299
278 19 17 40 31 45 31 6 0 30 -18 55 -40z"/>
</g>
</svg>
